<?xml version="1.0" encoding="iso-8859-1"?>
<!-- Generator: Adobe Illustrator 19.0.0, SVG Export Plug-In . SVG Version: 6.00 Build 0)  -->
<svg version="1.1" id="Layer_1" xmlns="http://www.w3.org/2000/svg" xmlns:xlink="http://www.w3.org/1999/xlink" x="0px" y="0px"
	 viewBox="0 0 512 512" style="enable-background:new 0 0 512 512;" xml:space="preserve">
<circle style="fill:#FF314F;" cx="256" cy="256" r="256"/>
<path style="fill:#A30F44;" d="M275.166,511.286C406.599,501.558,510.4,392.597,511.962,259.05L389.341,136.43l-6.244,9.161
	l-31.384-31.384l-13.54,18.822l31.808,31.808l-57.923,84.98L176.45,114.209l-13.972,58.039l41.681,40.443l-76.207,151.767
	L275.166,511.286z"/>
<path style="fill:#FFFFFF;" d="M371.228,369.778H140.772c-10.004,0-18.115-8.109-18.115-18.115V169.765h266.683v181.898
	C389.341,361.669,381.231,369.778,371.228,369.778z"/>
<path style="fill:#D0D1D3;" d="M255.426,169.765v200.013h115.802c10.004,0,18.115-8.111,18.115-18.115V169.765H255.426z"/>
<rect x="122.656" y="136.43" style="fill:#FEE187;" width="266.688" height="66.67"/>
<rect x="255.431" y="136.43" style="fill:#FFC61B;" width="133.913" height="66.67"/>
<g>
	<rect x="160.289" y="114.209" style="fill:#386895;" width="16.163" height="44.447"/>
	<rect x="335.558" y="114.209" style="fill:#386895;" width="16.163" height="44.447"/>
</g>
<g>
	<rect x="144.584" y="222.815" style="fill:#FF7F4F;" width="28.444" height="28.444"/>
	<rect x="193.181" y="222.815" style="fill:#FF7F4F;" width="28.444" height="28.444"/>
	<rect x="241.778" y="222.815" style="fill:#FF7F4F;" width="13.648" height="28.444"/>
	<rect x="255.431" y="222.815" style="fill:#FF7F4F;" width="14.796" height="28.444"/>
</g>
<g>
	<rect x="290.375" y="222.815" style="fill:#D35933;" width="28.444" height="28.444"/>
	<rect x="338.954" y="222.815" style="fill:#D35933;" width="28.444" height="28.444"/>
</g>
<g>
	<rect x="144.584" y="267.843" style="fill:#FF7F4F;" width="28.444" height="28.444"/>
	<rect x="193.181" y="267.843" style="fill:#FF7F4F;" width="28.444" height="28.444"/>
	<rect x="241.778" y="267.843" style="fill:#FF7F4F;" width="13.648" height="28.444"/>
	<rect x="255.431" y="267.843" style="fill:#FF7F4F;" width="14.796" height="28.444"/>
</g>
<g>
	<rect x="290.375" y="267.843" style="fill:#D35933;" width="28.444" height="28.444"/>
	<rect x="338.954" y="267.843" style="fill:#D35933;" width="28.444" height="28.444"/>
</g>
<g>
	<rect x="144.584" y="312.889" style="fill:#FF7F4F;" width="28.444" height="28.444"/>
	<rect x="193.181" y="312.889" style="fill:#FF7F4F;" width="28.444" height="28.444"/>
	<rect x="241.778" y="312.889" style="fill:#FF7F4F;" width="28.444" height="28.444"/>
</g>
<g>
	<rect x="255.431" y="222.815" style="fill:#D35933;" width="14.796" height="28.444"/>
	<rect x="255.431" y="267.843" style="fill:#D35933;" width="14.796" height="28.444"/>
	<rect x="255.431" y="312.889" style="fill:#D35933;" width="14.796" height="28.444"/>
	<rect x="290.375" y="312.889" style="fill:#D35933;" width="28.444" height="28.444"/>
	<rect x="338.954" y="312.889" style="fill:#D35933;" width="28.444" height="28.444"/>
</g>
<g>
</g>
<g>
</g>
<g>
</g>
<g>
</g>
<g>
</g>
<g>
</g>
<g>
</g>
<g>
</g>
<g>
</g>
<g>
</g>
<g>
</g>
<g>
</g>
<g>
</g>
<g>
</g>
<g>
</g>
</svg>
